<svg width="139" height="48" viewBox="0 0 139 48" fill="none" xmlns="http://www.w3.org/2000/svg">
<g filter="url(#filter0_d_83_157)">
<path d="M76.0167 6.56372C76.7816 6.56372 77.4092 6.79907 77.8995 7.26978C78.3899 7.72087 78.635 8.30925 78.635 9.03491C78.635 9.76058 78.3899 10.3588 77.8995 10.8295C77.4092 11.3002 76.7816 11.5355 76.0167 11.5355C75.2714 11.5355 74.6438 11.3002 74.1339 10.8295C73.6436 10.3588 73.3984 9.76058 73.3984 9.03491C73.3984 8.32886 73.6436 7.74048 74.1339 7.26978C74.6438 6.79907 75.2714 6.56372 76.0167 6.56372ZM73.8986 30.2166V14.0361H78.1055V30.2166H73.8986Z" fill="white"/>
<path d="M92.4795 14.0361H96.6864V30.0106C96.6864 32.4034 95.9607 34.3156 94.5094 35.7473C93.0581 37.1987 91.1164 37.9243 88.6845 37.9243C86.5859 37.9243 84.7619 37.3948 83.2125 36.3357C81.6827 35.2766 80.7708 33.737 80.4766 31.7169H84.8306C85.262 33.3644 86.5075 34.1881 88.5668 34.1881C91.1753 34.1881 92.4795 32.8349 92.4795 30.1283V27.8042C91.2243 29.4909 89.5278 30.3342 87.39 30.3342C85.2719 30.3342 83.5067 29.5497 82.0946 27.9807C80.7021 26.4117 80.0059 24.421 80.0059 22.0087C80.0059 19.5963 80.7119 17.6056 82.124 16.0366C83.5361 14.4676 85.2915 13.6831 87.39 13.6831C89.5474 13.6831 91.2439 14.5461 92.4795 16.272V14.0361ZM88.3314 26.3333C89.5278 26.3333 90.5182 25.9312 91.3027 25.1271C92.0873 24.323 92.4795 23.2835 92.4795 22.0087C92.4795 20.7535 92.0774 19.7238 91.2733 18.9197C90.4888 18.096 89.5082 17.6841 88.3314 17.6841C87.1547 17.6841 86.174 18.096 85.3895 18.9197C84.6246 19.7238 84.2422 20.7535 84.2422 22.0087C84.2422 23.2639 84.6246 24.3034 85.3895 25.1271C86.174 25.9312 87.1547 26.3333 88.3314 26.3333Z" fill="white"/>
<path d="M63.2801 22.0253C61.77 21.7115 60.554 21.3977 59.6322 21.0839C58.7104 20.77 57.8671 20.368 57.1022 19.8777C56.3373 19.407 55.7979 18.8186 55.4841 18.1125C55.1507 17.4065 54.984 16.5533 54.984 15.5531C54.984 14.4156 55.2292 13.4055 55.7195 12.5229C56.1902 11.66 56.8276 10.9931 57.6317 10.5224C58.4162 10.0517 59.2497 9.69871 60.1323 9.46336C60.9953 9.22801 61.8876 9.11033 62.8094 9.11033C65.6141 9.11033 67.7518 9.76735 69.2228 11.0814C70.6741 12.4151 71.5273 14.0821 71.7822 16.0826L67.5459 16.0826C67.2517 15.0235 66.7516 14.2488 66.0455 13.7585C65.3199 13.2682 64.251 13.0231 62.8389 13.0231C61.6621 13.0231 60.7697 13.229 60.1617 13.6409C59.5341 14.0527 59.2203 14.6313 59.2203 15.3766C59.2203 15.8473 59.3968 16.2199 59.7499 16.4945C60.0833 16.7887 60.4951 17.0044 60.9855 17.1417C61.4758 17.279 62.3485 17.4849 63.6038 17.7595C63.7018 17.7791 63.7803 17.7889 63.8391 17.7889C63.8783 17.8085 63.947 17.8282 64.045 17.8478C64.1235 17.8674 64.2019 17.887 64.2804 17.9066C65.3395 18.1223 66.2318 18.3577 66.9575 18.6127C67.6832 18.8676 68.399 19.2207 69.1051 19.6717C69.8112 20.1228 70.3505 20.7014 70.7231 21.4075C71.0762 22.1135 71.2527 22.9569 71.2527 23.9375C71.2527 25.9772 70.4878 27.5658 68.958 28.7034C67.4282 29.8409 65.6042 30.4097 63.4861 30.4097C60.8972 30.4097 58.9359 29.8115 57.6023 28.6151C56.249 27.4384 55.4449 25.9086 55.1899 24.0258L59.4557 24.0258C59.9656 25.6732 61.2993 26.4969 63.4567 26.4969C64.653 26.4969 65.5454 26.2714 66.1338 25.8203C66.7222 25.3888 67.0164 24.8201 67.0164 24.114C67.0164 23.5452 66.7712 23.1334 66.2809 22.8784C65.771 22.6234 64.7707 22.3391 63.2801 22.0253Z" fill="white"/>
<path fill-rule="evenodd" clip-rule="evenodd" d="M115.324 15.3311C114.285 14.1935 112.853 13.6248 111.029 13.6248C108.953 13.6248 107.313 14.4288 106.106 16.0369V14.029H105.998V13.9778H101.791V14.029H98.6348V17.7646H101.791V30.1582H105.998V21.6561C105.998 18.9692 107.214 17.6257 109.646 17.6257C110.725 17.6257 111.5 17.9003 111.97 18.4495C112.441 18.9986 112.676 19.8224 112.676 20.9207V30.1582H116.883V20.0087C116.883 18.0278 116.363 16.4686 115.324 15.3311Z" fill="white"/>
<path fill-rule="evenodd" clip-rule="evenodd" d="M134.216 14.0361H130.009V22.5382C130.009 23.8523 129.696 24.8525 129.068 25.539C128.46 26.2254 127.577 26.5686 126.42 26.5686C125.361 26.5686 124.596 26.294 124.126 25.7449C123.674 25.1957 123.449 24.372 123.449 23.2737V14.0361H119.242V24.1857C119.242 26.1469 119.752 27.7061 120.772 28.8633C121.811 30.0008 123.223 30.5696 125.008 30.5696C127.107 30.5696 128.774 29.7066 130.009 27.9807V30.2166H130.01V30.6243C130.01 31.8426 129.728 32.7254 129.17 33.3042C128.613 33.8819 127.766 34.1851 126.595 34.1851C125.671 34.1851 124.948 34 124.412 33.6455C123.879 33.2932 123.515 32.7632 123.326 32.0406L123.294 31.9164H118.976L119.003 32.1068C119.279 34.0021 120.139 35.4587 121.585 36.46L121.586 36.4605C123.039 37.454 124.747 37.948 126.703 37.948C128.971 37.948 130.799 37.2701 132.168 35.901C133.538 34.5499 134.216 32.7489 134.216 30.5163V30.2166H134.216V14.0361Z" fill="white"/>
<rect x="4" width="40" height="40" rx="9.92226" fill="#1064E5"/>
<path fill-rule="evenodd" clip-rule="evenodd" d="M35.0667 31.4788C32.2425 34.0677 28.6631 35.3621 24.3288 35.3621C19.7394 35.3621 15.9738 33.9304 13.0319 31.0669C10.1096 28.2231 8.64844 24.5163 8.64844 19.9466C8.64844 15.3964 10.0704 11.7092 12.9142 8.88501C15.7776 6.06079 19.4648 4.64868 23.9757 4.64868C26.29 4.64868 28.3788 5.04094 30.242 5.82544L29.5065 9.26746C27.9375 8.5418 26.1331 8.17896 24.0934 8.17896C20.622 8.17896 17.8075 9.22824 15.6502 11.3268C13.5124 13.4253 12.4435 16.3084 12.4435 19.976C12.4435 23.6239 13.5418 26.507 15.7384 28.6251C17.9546 30.7629 20.8475 31.8318 24.417 31.8318C25.986 31.8318 27.4177 31.6063 28.7122 31.1552C30.0262 30.7237 31.1932 30.0569 32.213 29.1547C33.2525 28.2721 34.0566 27.0856 34.6254 25.595C34.9247 24.8368 35.1479 24.0177 35.2949 23.1377C35.4737 21.449 35.5843 19.7433 35.2914 18.4196C35.1341 17.7084 34.895 17.2876 34.6454 17.0474C34.433 16.843 34.0591 16.6176 33.2659 16.6021C31.8583 16.5747 30.2888 17.4673 28.6887 19.1419C27.1379 20.765 25.832 22.8284 25.0312 24.3819C24.7194 24.9868 24.5038 25.4848 24.5038 25.4848L24.4212 25.4013L24.4209 25.4018L18.0415 18.9832L20.7417 16.2831L23.7283 19.2044C24.3771 18.284 25.1144 17.3553 25.9278 16.504C27.7639 14.5822 30.3067 12.7251 33.3404 12.7843C34.9306 12.8153 36.2777 13.3188 37.293 14.2957C38.271 15.2368 38.7665 16.4497 39.0198 17.5947C39.2195 18.497 39.2898 19.4662 39.2896 20.4173H39.303V20.9174C39.303 22.0601 39.21 23.1415 39.0239 24.1615L39.0188 24.2064L39.0157 24.206C38.4718 27.1398 37.1554 29.5641 35.0667 31.4788Z" fill="white"/>
</g>
<defs>
<filter id="filter0_d_83_157" x="0" y="0" width="138.216" height="48" filterUnits="userSpaceOnUse" color-interpolation-filters="sRGB">
<feFlood flood-opacity="0" result="BackgroundImageFix"/>
<feColorMatrix in="SourceAlpha" type="matrix" values="0 0 0 0 0 0 0 0 0 0 0 0 0 0 0 0 0 0 127 0" result="hardAlpha"/>
<feOffset dy="4"/>
<feGaussianBlur stdDeviation="2"/>
<feComposite in2="hardAlpha" operator="out"/>
<feColorMatrix type="matrix" values="0 0 0 0 0 0 0 0 0 0 0 0 0 0 0 0 0 0 0.25 0"/>
<feBlend mode="normal" in2="BackgroundImageFix" result="effect1_dropShadow_83_157"/>
<feBlend mode="normal" in="SourceGraphic" in2="effect1_dropShadow_83_157" result="shape"/>
</filter>
</defs>
</svg>
